<?xml version="1.0" encoding="utf-8"?>
<!-- Generator: Adobe Illustrator 14.0.0, SVG Export Plug-In . SVG Version: 6.00 Build 43363)  -->
<!DOCTYPE svg PUBLIC "-//W3C//DTD SVG 1.1//EN" "http://www.w3.org/Graphics/SVG/1.1/DTD/svg11.dtd">
<svg version="1.1" id="Layer_1" xmlns="http://www.w3.org/2000/svg" xmlns:xlink="http://www.w3.org/1999/xlink" x="0px" y="0px"
	 width="300px" height="300px" viewBox="0 0 300 300" enable-background="new 0 0 300 300" xml:space="preserve">
<circle fill="#FFFFFF" stroke="#000000" stroke-width="23" cx="150.75" cy="150.25" r="135.25"/>
<path fill="#010101" d="M176.909,141.273c11.168,0,20.116-9.014,20.116-20.182s-8.948-20.182-20.116-20.182
	s-20.182,9.013-20.182,20.182S165.741,141.273,176.909,141.273z M123.091,141.273c11.168,0,20.116-9.014,20.116-20.182
	s-8.948-20.182-20.116-20.182s-20.182,9.013-20.182,20.182S111.922,141.273,123.091,141.273z M123.091,154.727
	c-15.675,0-47.091,7.871-47.091,23.546v16.818h94.182v-16.818C170.182,162.598,138.766,154.727,123.091,154.727z M176.909,154.727
	c-1.951,0-4.172,0.133-6.53,0.336c7.805,5.656,13.258,13.251,13.258,23.21v16.818H224v-16.818
	C224,162.598,192.584,154.727,176.909,154.727z"/>
</svg>
